<mxfile host="app.diagrams.net" agent="Mozilla/5.0 (Windows NT 10.0; Win64; x64) AppleWebKit/537.36 (KHTML, like Gecko) Chrome/134.0.0.0 Safari/537.36 Edg/134.0.0.0" version="26.1.1">
  <diagram name="Page-1" id="KmScNd1gUS5MRT-JYs3q">
    <mxGraphModel dx="1282" dy="531" grid="1" gridSize="10" guides="1" tooltips="1" connect="1" arrows="1" fold="1" page="1" pageScale="1" pageWidth="827" pageHeight="1169" math="0" shadow="0">
      <root>
        <mxCell id="0" />
        <mxCell id="1" parent="0" />
        <mxCell id="kjKpvVGcaWIRW7tnzSc8-110" style="edgeStyle=orthogonalEdgeStyle;rounded=0;orthogonalLoop=1;jettySize=auto;html=1;exitX=0.5;exitY=1;exitDx=0;exitDy=0;" parent="1" source="kjKpvVGcaWIRW7tnzSc8-1" edge="1">
          <mxGeometry relative="1" as="geometry">
            <mxPoint x="639.666666666667" y="140" as="targetPoint" />
          </mxGeometry>
        </mxCell>
        <mxCell id="kjKpvVGcaWIRW7tnzSc8-1" value="Manage projects &amp;amp; tasks" style="rounded=1;whiteSpace=wrap;html=1;fillColor=light-dark(#FFCCCC,var(--ge-dark-color, #121212));" parent="1" vertex="1">
          <mxGeometry x="540" width="200" height="100" as="geometry" />
        </mxCell>
        <mxCell id="kjKpvVGcaWIRW7tnzSc8-111" style="edgeStyle=orthogonalEdgeStyle;rounded=0;orthogonalLoop=1;jettySize=auto;html=1;exitX=0;exitY=0.5;exitDx=0;exitDy=0;entryX=0;entryY=0.5;entryDx=0;entryDy=0;fillColor=#99CCFF;" parent="1" source="kjKpvVGcaWIRW7tnzSc8-2" target="kjKpvVGcaWIRW7tnzSc8-6" edge="1">
          <mxGeometry relative="1" as="geometry" />
        </mxCell>
        <mxCell id="kjKpvVGcaWIRW7tnzSc8-2" value="Manage projects" style="rounded=1;whiteSpace=wrap;html=1;fillColor=#99CCFF;" parent="1" vertex="1">
          <mxGeometry x="80" y="180" width="120" height="60" as="geometry" />
        </mxCell>
        <mxCell id="kjKpvVGcaWIRW7tnzSc8-125" style="edgeStyle=orthogonalEdgeStyle;rounded=0;orthogonalLoop=1;jettySize=auto;html=1;exitX=0;exitY=0.5;exitDx=0;exitDy=0;entryX=0;entryY=0.5;entryDx=0;entryDy=0;fillColor=#99CCFF;" parent="1" source="kjKpvVGcaWIRW7tnzSc8-3" target="kjKpvVGcaWIRW7tnzSc8-20" edge="1">
          <mxGeometry relative="1" as="geometry" />
        </mxCell>
        <mxCell id="kjKpvVGcaWIRW7tnzSc8-3" value="Manage tasks" style="rounded=1;whiteSpace=wrap;html=1;fillColor=#99CCFF;" parent="1" vertex="1">
          <mxGeometry x="280" y="180" width="120" height="60" as="geometry" />
        </mxCell>
        <mxCell id="kjKpvVGcaWIRW7tnzSc8-130" style="edgeStyle=orthogonalEdgeStyle;rounded=0;orthogonalLoop=1;jettySize=auto;html=1;exitX=0;exitY=0.5;exitDx=0;exitDy=0;entryX=0;entryY=0.5;entryDx=0;entryDy=0;fillColor=#99CCFF;" parent="1" source="kjKpvVGcaWIRW7tnzSc8-4" target="kjKpvVGcaWIRW7tnzSc8-29" edge="1">
          <mxGeometry relative="1" as="geometry" />
        </mxCell>
        <mxCell id="kjKpvVGcaWIRW7tnzSc8-131" style="edgeStyle=orthogonalEdgeStyle;rounded=0;orthogonalLoop=1;jettySize=auto;html=1;exitX=0;exitY=0.5;exitDx=0;exitDy=0;entryX=0;entryY=0.5;entryDx=0;entryDy=0;fillColor=#99CCFF;" parent="1" source="kjKpvVGcaWIRW7tnzSc8-4" target="kjKpvVGcaWIRW7tnzSc8-31" edge="1">
          <mxGeometry relative="1" as="geometry" />
        </mxCell>
        <mxCell id="kjKpvVGcaWIRW7tnzSc8-4" value="Manage user" style="rounded=1;whiteSpace=wrap;html=1;fillColor=#99CCFF;" parent="1" vertex="1">
          <mxGeometry x="480" y="180" width="120" height="60" as="geometry" />
        </mxCell>
        <mxCell id="kjKpvVGcaWIRW7tnzSc8-133" style="edgeStyle=orthogonalEdgeStyle;rounded=0;orthogonalLoop=1;jettySize=auto;html=1;exitX=0;exitY=0.5;exitDx=0;exitDy=0;entryX=0;entryY=0.5;entryDx=0;entryDy=0;fillColor=#99CCFF;" parent="1" source="kjKpvVGcaWIRW7tnzSc8-5" target="kjKpvVGcaWIRW7tnzSc8-38" edge="1">
          <mxGeometry relative="1" as="geometry" />
        </mxCell>
        <mxCell id="kjKpvVGcaWIRW7tnzSc8-5" value="Manage reports &amp;amp; workflow" style="rounded=1;whiteSpace=wrap;html=1;fillColor=#99CCFF;" parent="1" vertex="1">
          <mxGeometry x="680" y="180" width="120" height="60" as="geometry" />
        </mxCell>
        <mxCell id="kjKpvVGcaWIRW7tnzSc8-112" style="edgeStyle=orthogonalEdgeStyle;rounded=0;orthogonalLoop=1;jettySize=auto;html=1;exitX=0;exitY=0.5;exitDx=0;exitDy=0;entryX=0;entryY=0.5;entryDx=0;entryDy=0;fillColor=#99CCFF;" parent="1" source="kjKpvVGcaWIRW7tnzSc8-6" target="kjKpvVGcaWIRW7tnzSc8-10" edge="1">
          <mxGeometry relative="1" as="geometry" />
        </mxCell>
        <mxCell id="kjKpvVGcaWIRW7tnzSc8-6" value="Create project" style="rounded=1;whiteSpace=wrap;html=1;fillColor=#99CCFF;" parent="1" vertex="1">
          <mxGeometry x="80" y="270" width="120" height="60" as="geometry" />
        </mxCell>
        <mxCell id="kjKpvVGcaWIRW7tnzSc8-113" style="edgeStyle=orthogonalEdgeStyle;rounded=0;orthogonalLoop=1;jettySize=auto;html=1;exitX=0;exitY=0.5;exitDx=0;exitDy=0;entryX=0;entryY=0.5;entryDx=0;entryDy=0;fillColor=#99CCFF;" parent="1" source="kjKpvVGcaWIRW7tnzSc8-10" target="kjKpvVGcaWIRW7tnzSc8-12" edge="1">
          <mxGeometry relative="1" as="geometry" />
        </mxCell>
        <mxCell id="kjKpvVGcaWIRW7tnzSc8-10" value="Preview project" style="whiteSpace=wrap;html=1;rounded=1;fillColor=#99CCFF;" parent="1" vertex="1">
          <mxGeometry x="80" y="360" width="120" height="60" as="geometry" />
        </mxCell>
        <mxCell id="kjKpvVGcaWIRW7tnzSc8-114" style="edgeStyle=orthogonalEdgeStyle;rounded=0;orthogonalLoop=1;jettySize=auto;html=1;exitX=0;exitY=0.5;exitDx=0;exitDy=0;entryX=0;entryY=0.5;entryDx=0;entryDy=0;fillColor=#99CCFF;" parent="1" source="kjKpvVGcaWIRW7tnzSc8-12" target="kjKpvVGcaWIRW7tnzSc8-15" edge="1">
          <mxGeometry relative="1" as="geometry" />
        </mxCell>
        <mxCell id="kjKpvVGcaWIRW7tnzSc8-12" value="Update project" style="whiteSpace=wrap;html=1;rounded=1;fillColor=#99CCFF;" parent="1" vertex="1">
          <mxGeometry x="80" y="450" width="120" height="60" as="geometry" />
        </mxCell>
        <mxCell id="kjKpvVGcaWIRW7tnzSc8-15" value="Delete project" style="whiteSpace=wrap;html=1;rounded=1;fillColor=#99CCFF;" parent="1" vertex="1">
          <mxGeometry x="80" y="550" width="120" height="60" as="geometry" />
        </mxCell>
        <mxCell id="kjKpvVGcaWIRW7tnzSc8-126" style="edgeStyle=orthogonalEdgeStyle;rounded=0;orthogonalLoop=1;jettySize=auto;html=1;exitX=0;exitY=0.5;exitDx=0;exitDy=0;entryX=0;entryY=0.5;entryDx=0;entryDy=0;fillColor=#99CCFF;" parent="1" source="kjKpvVGcaWIRW7tnzSc8-20" target="kjKpvVGcaWIRW7tnzSc8-22" edge="1">
          <mxGeometry relative="1" as="geometry" />
        </mxCell>
        <mxCell id="kjKpvVGcaWIRW7tnzSc8-20" value="Create task" style="rounded=1;whiteSpace=wrap;html=1;fillColor=#99CCFF;" parent="1" vertex="1">
          <mxGeometry x="280" y="270" width="120" height="60" as="geometry" />
        </mxCell>
        <mxCell id="kjKpvVGcaWIRW7tnzSc8-127" style="edgeStyle=orthogonalEdgeStyle;rounded=0;orthogonalLoop=1;jettySize=auto;html=1;exitX=0;exitY=0.5;exitDx=0;exitDy=0;entryX=0;entryY=0.5;entryDx=0;entryDy=0;fillColor=#99CCFF;" parent="1" source="kjKpvVGcaWIRW7tnzSc8-22" target="kjKpvVGcaWIRW7tnzSc8-24" edge="1">
          <mxGeometry relative="1" as="geometry" />
        </mxCell>
        <mxCell id="kjKpvVGcaWIRW7tnzSc8-22" value="Update task" style="whiteSpace=wrap;html=1;rounded=1;fillColor=#99CCFF;" parent="1" vertex="1">
          <mxGeometry x="280" y="360" width="120" height="60" as="geometry" />
        </mxCell>
        <mxCell id="kjKpvVGcaWIRW7tnzSc8-128" style="edgeStyle=orthogonalEdgeStyle;rounded=0;orthogonalLoop=1;jettySize=auto;html=1;exitX=0;exitY=0.5;exitDx=0;exitDy=0;entryX=0;entryY=0.5;entryDx=0;entryDy=0;fillColor=#99CCFF;" parent="1" source="kjKpvVGcaWIRW7tnzSc8-24" target="kjKpvVGcaWIRW7tnzSc8-25" edge="1">
          <mxGeometry relative="1" as="geometry" />
        </mxCell>
        <mxCell id="kjKpvVGcaWIRW7tnzSc8-24" value="Assign member" style="whiteSpace=wrap;html=1;rounded=1;fillColor=#99CCFF;" parent="1" vertex="1">
          <mxGeometry x="280" y="450" width="120" height="60" as="geometry" />
        </mxCell>
        <mxCell id="kjKpvVGcaWIRW7tnzSc8-129" style="edgeStyle=orthogonalEdgeStyle;rounded=0;orthogonalLoop=1;jettySize=auto;html=1;exitX=0;exitY=0.5;exitDx=0;exitDy=0;entryX=0;entryY=0.5;entryDx=0;entryDy=0;fillColor=#99CCFF;" parent="1" source="kjKpvVGcaWIRW7tnzSc8-25" target="kjKpvVGcaWIRW7tnzSc8-78" edge="1">
          <mxGeometry relative="1" as="geometry" />
        </mxCell>
        <mxCell id="kjKpvVGcaWIRW7tnzSc8-25" value="Delete task" style="whiteSpace=wrap;html=1;rounded=1;fillColor=#99CCFF;" parent="1" vertex="1">
          <mxGeometry x="280" y="550" width="120" height="60" as="geometry" />
        </mxCell>
        <mxCell id="kjKpvVGcaWIRW7tnzSc8-132" style="edgeStyle=orthogonalEdgeStyle;rounded=0;orthogonalLoop=1;jettySize=auto;html=1;exitX=0;exitY=0.5;exitDx=0;exitDy=0;entryX=0;entryY=0.5;entryDx=0;entryDy=0;fillColor=#99CCFF;" parent="1" source="kjKpvVGcaWIRW7tnzSc8-29" target="kjKpvVGcaWIRW7tnzSc8-34" edge="1">
          <mxGeometry relative="1" as="geometry" />
        </mxCell>
        <mxCell id="kjKpvVGcaWIRW7tnzSc8-29" value="Add member" style="rounded=1;whiteSpace=wrap;html=1;fillColor=#99CCFF;" parent="1" vertex="1">
          <mxGeometry x="480" y="270" width="120" height="60" as="geometry" />
        </mxCell>
        <mxCell id="kjKpvVGcaWIRW7tnzSc8-31" value="Decentralize member" style="whiteSpace=wrap;html=1;rounded=1;fillColor=#99CCFF;" parent="1" vertex="1">
          <mxGeometry x="480" y="360" width="120" height="60" as="geometry" />
        </mxCell>
        <mxCell id="kjKpvVGcaWIRW7tnzSc8-34" value="Remove member" style="whiteSpace=wrap;html=1;rounded=1;fillColor=#99CCFF;" parent="1" vertex="1">
          <mxGeometry x="480" y="450" width="120" height="60" as="geometry" />
        </mxCell>
        <mxCell id="kjKpvVGcaWIRW7tnzSc8-135" style="edgeStyle=orthogonalEdgeStyle;rounded=0;orthogonalLoop=1;jettySize=auto;html=1;exitX=0;exitY=0.5;exitDx=0;exitDy=0;entryX=0;entryY=0.5;entryDx=0;entryDy=0;fillColor=#99CCFF;" parent="1" source="kjKpvVGcaWIRW7tnzSc8-38" target="kjKpvVGcaWIRW7tnzSc8-40" edge="1">
          <mxGeometry relative="1" as="geometry" />
        </mxCell>
        <mxCell id="kjKpvVGcaWIRW7tnzSc8-38" value="Read report" style="rounded=1;whiteSpace=wrap;html=1;fillColor=#99CCFF;" parent="1" vertex="1">
          <mxGeometry x="680" y="270" width="120" height="60" as="geometry" />
        </mxCell>
        <mxCell id="YyH095xJ4kQLOUP7f2XW-2" style="edgeStyle=orthogonalEdgeStyle;rounded=0;orthogonalLoop=1;jettySize=auto;html=1;exitX=0;exitY=0.5;exitDx=0;exitDy=0;entryX=0;entryY=0.5;entryDx=0;entryDy=0;" edge="1" parent="1" source="kjKpvVGcaWIRW7tnzSc8-40" target="YyH095xJ4kQLOUP7f2XW-1">
          <mxGeometry relative="1" as="geometry" />
        </mxCell>
        <mxCell id="kjKpvVGcaWIRW7tnzSc8-40" value="Export report" style="whiteSpace=wrap;html=1;rounded=1;fillColor=#99CCFF;" parent="1" vertex="1">
          <mxGeometry x="680" y="360" width="120" height="60" as="geometry" />
        </mxCell>
        <mxCell id="kjKpvVGcaWIRW7tnzSc8-138" style="edgeStyle=orthogonalEdgeStyle;rounded=0;orthogonalLoop=1;jettySize=auto;html=1;exitX=0;exitY=0.5;exitDx=0;exitDy=0;entryX=0;entryY=0.5;entryDx=0;entryDy=0;fillColor=#99CCFF;" parent="1" source="kjKpvVGcaWIRW7tnzSc8-53" target="kjKpvVGcaWIRW7tnzSc8-57" edge="1">
          <mxGeometry relative="1" as="geometry" />
        </mxCell>
        <mxCell id="kjKpvVGcaWIRW7tnzSc8-53" value="Manage file &amp;amp; resource" style="rounded=1;whiteSpace=wrap;html=1;fillColor=#99CCFF;" parent="1" vertex="1">
          <mxGeometry x="880" y="180" width="120" height="60" as="geometry" />
        </mxCell>
        <mxCell id="kjKpvVGcaWIRW7tnzSc8-139" style="edgeStyle=orthogonalEdgeStyle;rounded=0;orthogonalLoop=1;jettySize=auto;html=1;exitX=0;exitY=0.5;exitDx=0;exitDy=0;entryX=0;entryY=0.5;entryDx=0;entryDy=0;fillColor=#99CCFF;" parent="1" source="kjKpvVGcaWIRW7tnzSc8-57" target="kjKpvVGcaWIRW7tnzSc8-59" edge="1">
          <mxGeometry relative="1" as="geometry" />
        </mxCell>
        <mxCell id="kjKpvVGcaWIRW7tnzSc8-57" value="Upload file/resource" style="rounded=1;whiteSpace=wrap;html=1;fillColor=#99CCFF;" parent="1" vertex="1">
          <mxGeometry x="880" y="270" width="120" height="60" as="geometry" />
        </mxCell>
        <mxCell id="kjKpvVGcaWIRW7tnzSc8-140" style="edgeStyle=orthogonalEdgeStyle;rounded=0;orthogonalLoop=1;jettySize=auto;html=1;exitX=0;exitY=0.5;exitDx=0;exitDy=0;entryX=0;entryY=0.5;entryDx=0;entryDy=0;fillColor=#99CCFF;" parent="1" source="kjKpvVGcaWIRW7tnzSc8-59" target="kjKpvVGcaWIRW7tnzSc8-80" edge="1">
          <mxGeometry relative="1" as="geometry" />
        </mxCell>
        <mxCell id="kjKpvVGcaWIRW7tnzSc8-59" value="Delete file/resource" style="whiteSpace=wrap;html=1;rounded=1;fillColor=#99CCFF;" parent="1" vertex="1">
          <mxGeometry x="880" y="360" width="120" height="60" as="geometry" />
        </mxCell>
        <mxCell id="kjKpvVGcaWIRW7tnzSc8-141" style="edgeStyle=orthogonalEdgeStyle;rounded=0;orthogonalLoop=1;jettySize=auto;html=1;exitX=0;exitY=0.5;exitDx=0;exitDy=0;entryX=0;entryY=0.5;entryDx=0;entryDy=0;fillColor=#99CCFF;" parent="1" source="kjKpvVGcaWIRW7tnzSc8-70" target="kjKpvVGcaWIRW7tnzSc8-74" edge="1">
          <mxGeometry relative="1" as="geometry" />
        </mxCell>
        <mxCell id="kjKpvVGcaWIRW7tnzSc8-70" value="Manage notifications &amp;amp; comments" style="rounded=1;whiteSpace=wrap;html=1;fillColor=#99CCFF;" parent="1" vertex="1">
          <mxGeometry x="1080" y="180" width="120" height="60" as="geometry" />
        </mxCell>
        <mxCell id="kjKpvVGcaWIRW7tnzSc8-142" style="edgeStyle=orthogonalEdgeStyle;rounded=0;orthogonalLoop=1;jettySize=auto;html=1;exitX=0;exitY=0.5;exitDx=0;exitDy=0;entryX=0;entryY=0.5;entryDx=0;entryDy=0;fillColor=#99CCFF;" parent="1" source="kjKpvVGcaWIRW7tnzSc8-74" target="kjKpvVGcaWIRW7tnzSc8-75" edge="1">
          <mxGeometry relative="1" as="geometry" />
        </mxCell>
        <mxCell id="kjKpvVGcaWIRW7tnzSc8-74" value="Send notification" style="rounded=1;whiteSpace=wrap;html=1;fillColor=#99CCFF;" parent="1" vertex="1">
          <mxGeometry x="1080" y="270" width="120" height="60" as="geometry" />
        </mxCell>
        <mxCell id="kjKpvVGcaWIRW7tnzSc8-143" style="edgeStyle=orthogonalEdgeStyle;rounded=0;orthogonalLoop=1;jettySize=auto;html=1;exitX=0;exitY=0.5;exitDx=0;exitDy=0;entryX=0;entryY=0.5;entryDx=0;entryDy=0;fillColor=#99CCFF;" parent="1" source="kjKpvVGcaWIRW7tnzSc8-75" target="kjKpvVGcaWIRW7tnzSc8-82" edge="1">
          <mxGeometry relative="1" as="geometry" />
        </mxCell>
        <mxCell id="kjKpvVGcaWIRW7tnzSc8-75" value="Read notification" style="whiteSpace=wrap;html=1;rounded=1;fillColor=#99CCFF;" parent="1" vertex="1">
          <mxGeometry x="1080" y="360" width="120" height="60" as="geometry" />
        </mxCell>
        <mxCell id="kjKpvVGcaWIRW7tnzSc8-78" value="Edit task" style="whiteSpace=wrap;html=1;rounded=1;fillColor=#99CCFF;" parent="1" vertex="1">
          <mxGeometry x="280" y="640" width="120" height="60" as="geometry" />
        </mxCell>
        <mxCell id="kjKpvVGcaWIRW7tnzSc8-80" value="Hyperlink file/resource" style="whiteSpace=wrap;html=1;rounded=1;fillColor=#99CCFF;" parent="1" vertex="1">
          <mxGeometry x="880" y="450" width="120" height="60" as="geometry" />
        </mxCell>
        <mxCell id="kjKpvVGcaWIRW7tnzSc8-144" style="edgeStyle=orthogonalEdgeStyle;rounded=0;orthogonalLoop=1;jettySize=auto;html=1;exitX=0;exitY=0.5;exitDx=0;exitDy=0;entryX=0;entryY=0.5;entryDx=0;entryDy=0;fillColor=#99CCFF;" parent="1" source="kjKpvVGcaWIRW7tnzSc8-82" target="kjKpvVGcaWIRW7tnzSc8-84" edge="1">
          <mxGeometry relative="1" as="geometry" />
        </mxCell>
        <mxCell id="kjKpvVGcaWIRW7tnzSc8-82" value="Add comments" style="whiteSpace=wrap;html=1;rounded=1;fillColor=#99CCFF;" parent="1" vertex="1">
          <mxGeometry x="1080" y="450" width="120" height="60" as="geometry" />
        </mxCell>
        <mxCell id="kjKpvVGcaWIRW7tnzSc8-84" value="Remove comments" style="whiteSpace=wrap;html=1;rounded=1;fillColor=#99CCFF;" parent="1" vertex="1">
          <mxGeometry x="1080" y="550" width="120" height="60" as="geometry" />
        </mxCell>
        <mxCell id="kjKpvVGcaWIRW7tnzSc8-87" value="" style="endArrow=none;html=1;rounded=0;fillColor=#99CCFF;" parent="1" edge="1">
          <mxGeometry width="50" height="50" relative="1" as="geometry">
            <mxPoint x="140" y="140" as="sourcePoint" />
            <mxPoint x="1140" y="140" as="targetPoint" />
          </mxGeometry>
        </mxCell>
        <mxCell id="kjKpvVGcaWIRW7tnzSc8-91" value="" style="endArrow=classic;html=1;rounded=0;entryX=0.5;entryY=0;entryDx=0;entryDy=0;fillColor=#99CCFF;" parent="1" edge="1">
          <mxGeometry width="50" height="50" relative="1" as="geometry">
            <mxPoint x="339.5" y="140" as="sourcePoint" />
            <mxPoint x="339.5" y="180" as="targetPoint" />
          </mxGeometry>
        </mxCell>
        <mxCell id="kjKpvVGcaWIRW7tnzSc8-92" value="" style="endArrow=classic;html=1;rounded=0;entryX=0.5;entryY=0;entryDx=0;entryDy=0;fillColor=#99CCFF;" parent="1" edge="1">
          <mxGeometry width="50" height="50" relative="1" as="geometry">
            <mxPoint x="540" y="140" as="sourcePoint" />
            <mxPoint x="540" y="180" as="targetPoint" />
          </mxGeometry>
        </mxCell>
        <mxCell id="kjKpvVGcaWIRW7tnzSc8-93" value="" style="endArrow=classic;html=1;rounded=0;entryX=0.5;entryY=0;entryDx=0;entryDy=0;fillColor=#99CCFF;" parent="1" edge="1">
          <mxGeometry width="50" height="50" relative="1" as="geometry">
            <mxPoint x="739.5" y="140" as="sourcePoint" />
            <mxPoint x="739.5" y="180" as="targetPoint" />
          </mxGeometry>
        </mxCell>
        <mxCell id="kjKpvVGcaWIRW7tnzSc8-105" value="" style="endArrow=classic;html=1;rounded=0;entryX=0.5;entryY=0;entryDx=0;entryDy=0;fillColor=#99CCFF;" parent="1" edge="1">
          <mxGeometry width="50" height="50" relative="1" as="geometry">
            <mxPoint x="940" y="140" as="sourcePoint" />
            <mxPoint x="940" y="180" as="targetPoint" />
          </mxGeometry>
        </mxCell>
        <mxCell id="kjKpvVGcaWIRW7tnzSc8-106" value="" style="endArrow=classic;html=1;rounded=0;entryX=0.5;entryY=0;entryDx=0;entryDy=0;fillColor=#99CCFF;" parent="1" edge="1">
          <mxGeometry width="50" height="50" relative="1" as="geometry">
            <mxPoint x="1139.5" y="140" as="sourcePoint" />
            <mxPoint x="1139.5" y="180" as="targetPoint" />
          </mxGeometry>
        </mxCell>
        <mxCell id="kjKpvVGcaWIRW7tnzSc8-115" value="" style="endArrow=classic;html=1;rounded=0;entryX=0.5;entryY=0;entryDx=0;entryDy=0;fillColor=#99CCFF;" parent="1" edge="1">
          <mxGeometry width="50" height="50" relative="1" as="geometry">
            <mxPoint x="139.72000000000003" y="140" as="sourcePoint" />
            <mxPoint x="139.72000000000003" y="180" as="targetPoint" />
          </mxGeometry>
        </mxCell>
        <mxCell id="YyH095xJ4kQLOUP7f2XW-1" value="Preview workflow" style="whiteSpace=wrap;html=1;rounded=1;fillColor=#99CCFF;" vertex="1" parent="1">
          <mxGeometry x="680" y="450" width="120" height="60" as="geometry" />
        </mxCell>
      </root>
    </mxGraphModel>
  </diagram>
</mxfile>
